<?xml version="1.0" standalone="no"?>
<!DOCTYPE svg PUBLIC "-//W3C//DTD SVG 20010904//EN"
 "http://www.w3.org/TR/2001/REC-SVG-20010904/DTD/svg10.dtd">
<svg version="1.0" xmlns="http://www.w3.org/2000/svg"
 width="312.000000pt" height="312.000000pt" viewBox="0 0 312.000000 312.000000"
 preserveAspectRatio="xMidYMid meet">

<g transform="translate(0.000000,312.000000) scale(0.100000,-0.100000)"
fill="#000000" stroke="none">
<path d="M1373 3105 c-666 -86 -1194 -570 -1334 -1223 -26 -124 -36 -390 -20
-517 74 -566 451 -1046 983 -1251 330 -128 713 -137 1049 -24 565 189 976 688
1050 1276 16 133 6 390 -20 516 -137 637 -656 1125 -1296 1218 -121 17 -298
19 -412 5z m422 -160 c284 -47 542 -183 755 -395 195 -194 318 -416 381 -690
29 -121 36 -383 15 -510 -24 -151 -61 -265 -131 -405 -78 -158 -161 -270 -292
-395 -155 -149 -310 -244 -509 -313 -166 -57 -256 -72 -454 -72 -198 0 -288
15 -455 72 -391 135 -715 451 -862 842 -53 141 -74 256 -80 431 -6 202 10 322
66 490 74 221 176 386 341 550 246 246 505 366 885 413 62 8 244 -2 340 -18z"/>
<path d="M1622 1985 c0 -16 2 -22 5 -12 2 9 2 23 0 30 -3 6 -5 -1 -5 -18z"/>
<path d="M703 1955 c62 -128 87 -250 94 -460 5 -153 0 -211 -33 -371 l-6 -32
88 -12 c213 -29 359 -93 493 -215 l45 -40 -20 35 c-10 19 -57 73 -104 121 -93
94 -188 150 -310 183 l-65 18 0 196 c-1 186 -2 202 -28 287 -34 110 -105 258
-147 305 l-31 35 24 -50z"/>
<path d="M2389 1939 c-52 -76 -89 -159 -125 -274 -26 -85 -28 -101 -29 -289
l-1 -198 -74 -22 c-155 -45 -288 -137 -374 -259 -66 -96 -65 -97 17 -21 120
112 282 181 465 199 38 4 75 10 81 14 8 5 5 39 -10 122 -18 98 -20 138 -16
284 7 194 27 302 81 426 18 44 32 79 30 79 -2 0 -22 -28 -45 -61z"/>
<path d="M1350 1986 c0 -2 8 -10 18 -17 15 -13 16 -12 3 4 -13 16 -21 21 -21
13z"/>
<path d="M889 1880 c48 -104 66 -213 66 -390 0 -85 -3 -181 -8 -212 -6 -49 -5
-58 9 -58 37 0 174 -55 239 -95 69 -42 162 -131 200 -188 31 -48 28 -21 -4 40
-72 134 -186 242 -303 284 l-60 22 6 36 c10 62 -13 275 -40 368 -27 92 -68
178 -109 228 -24 29 -24 28 4 -35z"/>
<path d="M2212 1878 c-81 -124 -121 -278 -125 -483 l-3 -118 -35 -12 c-134
-47 -280 -187 -333 -320 l-16 -40 27 35 c50 65 149 155 214 193 35 21 103 50
151 65 l87 26 -7 61 c-4 33 -7 128 -7 210 1 171 19 280 65 382 16 34 27 63 26
63 -2 0 -22 -28 -44 -62z"/>
<path d="M1562 1255 c0 -16 2 -22 5 -12 2 9 2 23 0 30 -3 6 -5 -1 -5 -18z"/>
<path d="M1509 821 c-16 -16 -29 -34 -29 -40 0 -7 31 -11 85 -11 54 0 85 4 85
11 0 6 -13 24 -29 40 -38 38 -74 38 -112 0z"/>
</g>
</svg>
