<?xml version="1.0" standalone="no"?>
<!DOCTYPE svg PUBLIC "-//W3C//DTD SVG 20010904//EN"
 "http://www.w3.org/TR/2001/REC-SVG-20010904/DTD/svg10.dtd">
<svg version="1.0" xmlns="http://www.w3.org/2000/svg"
 width="100.000000pt" height="100.000000pt" viewBox="0 0 100.000000 100.000000"
 preserveAspectRatio="xMidYMid meet">

<g transform="translate(0.000000,100.000000) scale(0.100000,-0.100000)"
fill="#000000" stroke="none">
<path d="M777 844 c-4 -4 -2 -13 4 -21 9 -10 8 -18 -5 -32 -14 -16 -15 -24 -6
-40 6 -12 15 -19 21 -16 5 4 7 11 3 16 -3 6 0 24 7 40 10 25 9 33 -3 45 -8 8
-17 11 -21 8z"/>
<path d="M825 827 c4 -14 2 -28 -4 -31 -16 -11 -13 -42 6 -57 15 -13 16 -11
10 10 -3 14 -2 31 4 37 14 17 8 56 -9 62 -9 3 -11 -3 -7 -21z"/>
<path d="M132 543 l3 -168 173 -3 172 -2 0 171 0 171 -88 -80 -88 -81 -80 80
c-43 43 -82 79 -87 79 -4 0 -6 -75 -5 -167z m125 -15 l53 -52 53 52 c29 29 56
52 60 52 4 0 7 -34 7 -75 l0 -75 -120 0 -120 0 0 75 c0 41 3 75 7 75 4 0 31
-23 60 -52z"/>
<path d="M611 626 l-83 -83 0 -84 0 -84 171 -3 171 -2 0 89 c0 66 -4 92 -15
101 -11 9 -15 32 -15 81 l0 69 -30 0 c-28 0 -30 -3 -30 -35 0 -19 -2 -35 -5
-35 -3 0 -19 16 -36 35 -17 19 -34 35 -38 35 -3 0 -44 -38 -90 -84z m146 -48
c49 -49 53 -56 53 -100 l0 -48 -115 0 -115 0 0 47 c0 44 4 52 52 100 29 29 57
53 62 53 6 0 34 -23 63 -52z"/>
<path d="M241 291 c-26 -26 -26 -46 -1 -71 11 -11 27 -20 35 -20 18 0 55 35
55 53 0 43 -59 68 -89 38z m58 -20 c13 -24 -9 -57 -33 -48 -23 9 -31 34 -16
52 17 20 37 19 49 -4z"/>
<path d="M140 256 c0 -25 5 -48 10 -51 6 -3 10 3 10 14 0 27 7 26 31 -1 21
-26 26 -11 5 17 -12 16 -12 22 1 42 18 27 8 30 -19 6 -17 -15 -18 -15 -18 0 0
10 -4 17 -10 17 -5 0 -10 -20 -10 -44z"/>
<path d="M350 255 c0 -25 4 -45 9 -45 4 0 6 11 3 25 -5 29 5 32 24 8 12 -17
13 -17 19 0 10 25 23 21 28 -10 2 -17 5 -10 6 20 1 50 -11 61 -30 25 l-12 -22
-15 22 c-22 34 -32 27 -32 -23z"/>
<path d="M476 253 c-9 -25 -13 -49 -10 -52 4 -3 9 0 11 7 3 6 15 12 27 12 12
0 28 -6 35 -12 11 -11 12 -8 7 14 -21 91 -46 102 -70 31z m44 -4 c0 -5 -4 -9
-10 -9 -5 0 -10 7 -10 16 0 8 5 12 10 9 6 -3 10 -10 10 -16z"/>
<path d="M570 256 c0 -25 5 -48 10 -51 6 -4 10 5 10 20 0 20 4 26 18 23 9 -2
18 -13 20 -26 2 -12 8 -20 13 -17 12 8 12 95 -1 95 -5 0 -10 -7 -10 -15 0 -8
-9 -15 -20 -15 -11 0 -20 7 -20 15 0 8 -4 15 -10 15 -5 0 -10 -20 -10 -44z"/>
<path d="M687 268 c-4 -18 -9 -44 -12 -58 -3 -14 -3 -19 1 -12 7 14 64 17 64
2 0 -5 4 -10 9 -10 10 0 9 14 -4 43 -4 9 -5 29 -3 42 5 22 2 25 -22 25 -23 0
-28 -5 -33 -32z m43 -13 c0 -24 -5 -35 -15 -35 -10 0 -15 11 -15 35 0 24 5 35
15 35 10 0 15 -11 15 -35z"/>
<path d="M787 256 c-17 -50 -14 -60 14 -43 15 9 24 9 40 -1 20 -13 21 -12 15
12 -22 88 -46 99 -69 32z m43 -7 c0 -5 -4 -9 -10 -9 -5 0 -10 7 -10 16 0 8 5
12 10 9 6 -3 10 -10 10 -16z"/>
</g>
</svg>
